<svg width="20" height="20" viewBox="0 0 20 20" fill="none" xmlns="http://www.w3.org/2000/svg">
<path d="M1 10C1 14.9707 5.0293 19 10 19C14.9707 19 19 14.9707 19 10C19 5.0293 14.9707 1 10 1C5.0293 1 1 5.0293 1 10Z" stroke="#004191" stroke-linecap="round" stroke-linejoin="round"/>
<path d="M1.56738 13.15H18.4334M1.56738 6.85001H18.4334M10.9004 1.04501C10.9004 1.04501 16 4.60001 16 10C16 15.4 10.9004 18.955 10.9004 18.955L11.5 10L10.9004 1.04501ZM9.10038 18.955C9.10038 18.955 5 15.4 5 10C5 4.60001 9.10038 1.04501 9.10038 1.04501L8.5 10L9.10038 18.955Z" stroke="#004191" stroke-linecap="round" stroke-linejoin="round"/>
</svg>
