<svg width="658" height="449" viewBox="0 0 658 449" fill="none" xmlns="http://www.w3.org/2000/svg">
<g clip-path="url(#clip0_202_195)">
<path opacity="0.5" fill-rule="evenodd" clip-rule="evenodd" d="M219.508 199.905L525.428 0H658L376.558 400.078C271.509 551.134 51.0568 310.403 219.508 199.905Z" fill="white"/>
<path d="M356.635 207.993H1.67822V448.151H356.635V207.993Z" fill="#95B3C4"/>
<path d="M356.635 207.993H1.67822V239.126H356.635V207.993Z" fill="#5C8196"/>
<path fill-rule="evenodd" clip-rule="evenodd" d="M154.021 313.126C167.87 313.126 179.161 301.836 179.161 288.004C179.161 274.166 167.87 262.883 154.021 262.883C140.172 262.883 128.881 274.166 128.881 288.004C128.874 301.836 140.172 313.126 154.021 313.126Z" fill="white"/>
<path fill-rule="evenodd" clip-rule="evenodd" d="M163.837 271.247C167.79 269.592 172.338 271.458 173.988 275.407C175.644 279.357 173.777 283.895 169.824 285.55C165.872 287.206 161.323 285.34 159.674 281.39C158.018 277.44 159.878 272.895 163.837 271.247Z" fill="black"/>
<path fill-rule="evenodd" clip-rule="evenodd" d="M167.55 271.596C168.829 271.058 170.304 271.661 170.842 272.946C171.379 274.224 170.776 275.698 169.49 276.235C168.211 276.772 166.736 276.17 166.199 274.892C165.668 273.6 166.271 272.133 167.55 271.596Z" fill="white"/>
<path d="M130.029 257.401C129.419 258.214 128.874 257.779 128.809 256.421C128.743 255.063 129.186 253.299 129.797 252.486C133.154 248.013 141.015 242.749 150.424 238.437C159.1 234.458 169.141 231.241 178.165 230.152C178.732 230.087 179.001 231.314 178.761 232.897C178.521 234.48 177.875 235.816 177.308 235.888C168.349 236.97 158.417 240.157 149.836 244.085C140.688 248.282 133.125 253.277 130.029 257.401Z" fill="#193545"/>
<path opacity="0.9" fill-rule="evenodd" clip-rule="evenodd" d="M211.167 205.721C209.851 206.737 205.645 210.048 204.388 211.086C100.421 296.71 191.295 442.386 286.266 449H0V205.721H211.167ZM299.563 449C319.376 447.599 338.972 438.93 356.636 422.891V449H299.563Z" fill="#23495F"/>
<path fill-rule="evenodd" clip-rule="evenodd" d="M208.253 207.993H356.643V422.985C339.198 438.821 319.856 446.626 300.289 448.158H285.525C189.667 440.723 98.5102 292.963 208.253 207.993Z" fill="#F98118"/>
<path fill-rule="evenodd" clip-rule="evenodd" d="M164.803 265.301C173.29 269.338 179.153 277.985 179.153 287.997C179.153 300.326 170.26 310.585 158.54 312.712C157.356 296.877 159.201 280.838 164.803 265.301Z" fill="white"/>
<path fill-rule="evenodd" clip-rule="evenodd" d="M163.837 271.247C167.79 269.592 172.338 271.458 173.988 275.407C175.644 279.357 173.777 283.895 169.824 285.55C166.213 287.061 162.115 285.638 160.168 282.378C160.829 278.849 161.665 275.335 162.682 271.842C163.045 271.617 163.43 271.414 163.837 271.247Z" fill="black"/>
<path fill-rule="evenodd" clip-rule="evenodd" d="M167.55 271.596C168.829 271.058 170.304 271.661 170.842 272.946C171.379 274.224 170.776 275.698 169.49 276.235C168.211 276.772 166.736 276.17 166.199 274.892C165.668 273.6 166.271 272.133 167.55 271.596Z" fill="white"/>
<path fill-rule="evenodd" clip-rule="evenodd" d="M213.274 313.126C227.122 313.126 238.413 301.836 238.413 288.004C238.413 274.166 227.122 262.883 213.274 262.883C199.425 262.883 188.134 274.166 188.134 288.004C188.134 301.836 199.425 313.126 213.274 313.126Z" fill="white"/>
<path fill-rule="evenodd" clip-rule="evenodd" d="M223.09 271.247C227.042 269.592 231.591 271.458 233.24 275.407C234.897 279.357 233.029 283.895 229.077 285.55C225.124 287.206 220.576 285.34 218.926 281.39C217.277 277.44 219.137 272.895 223.09 271.247Z" fill="black"/>
<path fill-rule="evenodd" clip-rule="evenodd" d="M226.803 271.596C228.081 271.058 229.556 271.661 230.094 272.946C230.632 274.224 230.029 275.698 228.75 276.235C227.471 276.772 225.996 276.17 225.458 274.892C224.921 273.6 225.524 272.133 226.803 271.596Z" fill="white"/>
<path d="M171.176 332.032L175.223 334.232L175.165 334.334L175.099 334.436L175.034 334.53L174.961 334.617L174.888 334.704L174.808 334.784L174.721 334.864L174.634 334.937L174.547 335.002L174.452 335.067L174.358 335.125L174.264 335.176L174.162 335.227L174.06 335.271L173.958 335.307L173.849 335.343L173.74 335.372L173.631 335.394L173.522 335.416L173.413 335.43L173.304 335.438H173.195H173.079L172.97 335.43L172.861 335.416L172.752 335.394L172.643 335.372L172.534 335.343L172.425 335.307L172.316 335.263L172.207 335.213L172.106 335.162L172.004 335.104L171.909 335.038L171.815 334.973L171.728 334.9L171.641 334.821L171.561 334.741L171.481 334.661L171.408 334.574L171.343 334.487L171.277 334.392L171.219 334.298L171.168 334.203L171.117 334.102L171.074 334L171.038 333.898L171.001 333.797L170.972 333.688L170.95 333.579L170.929 333.47L170.914 333.361L170.907 333.252V333.143V333.034L170.914 332.926L170.929 332.809L170.95 332.7L170.972 332.592L171.001 332.483L171.038 332.374L171.081 332.265L171.132 332.156L171.176 332.032ZM219.137 328.359L215.156 330.682L214.414 329.528L213.586 328.468L212.671 327.495L211.683 326.602L210.614 325.788L209.474 325.055L208.268 324.402L206.996 323.835L205.674 323.349L204.3 322.942L202.876 322.623L201.423 322.383L199.934 322.231L198.422 322.158L196.897 322.173L195.356 322.267L193.816 322.449L192.283 322.71L190.764 323.051L189.267 323.472L187.792 323.973L186.354 324.547L184.952 325.2L183.6 325.926L182.3 326.725L181.064 327.596L179.895 328.533L178.797 329.542L177.78 330.617L176.843 331.757L175.993 332.962L175.237 334.232L171.19 332.032L172.127 330.457L173.181 328.969L174.329 327.567L175.571 326.26L176.901 325.041L178.303 323.915L179.778 322.877L181.311 321.933L182.895 321.084L184.53 320.321L186.201 319.653L187.909 319.072L189.645 318.586L191.404 318.194L193.176 317.896L194.957 317.693L196.737 317.584L198.517 317.569L200.282 317.649L202.034 317.831L203.763 318.114L205.463 318.499L207.127 318.985L208.747 319.581L210.317 320.285L211.828 321.098L213.274 322.02L214.64 323.058L215.926 324.213L217.11 325.483L218.193 326.87L219.137 328.359ZM215.156 330.675L219.137 328.351L219.195 328.453L219.246 328.555L219.29 328.664L219.326 328.772L219.362 328.881L219.392 328.99L219.413 329.099L219.428 329.208L219.435 329.324L219.442 329.433V329.542V329.651L219.435 329.76L219.421 329.869L219.399 329.978L219.37 330.087L219.341 330.196L219.304 330.297L219.261 330.399L219.217 330.501L219.166 330.602L219.108 330.697L219.05 330.791L218.985 330.878L218.912 330.965L218.839 331.052L218.759 331.132L218.672 331.212L218.585 331.285L218.491 331.357L218.396 331.423L218.294 331.488L218.193 331.546L218.084 331.597L217.975 331.64L217.866 331.684L217.757 331.72L217.648 331.749L217.539 331.771L217.43 331.786L217.321 331.8L217.212 331.807H217.103L216.994 331.8L216.885 331.807L216.776 331.793L216.667 331.771L216.558 331.742L216.449 331.713L216.347 331.677L216.245 331.633L216.144 331.59L216.042 331.539L215.948 331.481L215.853 331.423L215.759 331.357L215.671 331.285L215.584 331.212L215.504 331.132L215.424 331.052L215.352 330.965L215.279 330.871L215.214 330.776L215.156 330.675Z" fill="#193545"/>
<path fill-rule="evenodd" clip-rule="evenodd" d="M208.253 207.993H356.643V239.126H178.274C185.845 228.134 195.763 217.664 208.253 207.993Z" fill="#4F96BF"/>
<path d="M252.189 256.617C252.829 257.408 253.359 256.951 253.373 255.593C253.388 254.236 252.887 252.486 252.255 251.694C248.76 247.331 240.724 242.328 231.176 238.328C222.37 234.632 212.242 231.742 203.181 230.951C202.614 230.9 202.389 232.142 202.673 233.717C202.963 235.293 203.653 236.607 204.227 236.658C213.215 237.442 223.249 240.303 231.954 243.955C241.24 247.854 248.963 252.595 252.189 256.617Z" fill="#193545"/>
</g>
<defs>
<clipPath id="clip0_202_195">
<rect width="658" height="449" fill="white"/>
</clipPath>
</defs>
</svg>
