<svg width="220" height="100" viewBox="0 0 168 79" fill="none" xmlns="http://www.w3.org/2000/svg">
<path fill-rule="evenodd" clip-rule="evenodd" d="M66.0288 20.2657H89.518L93.0938 27.9109L91.8607 28.4873C88.9631 25.5142 87.3602 23.9063 87.0519 23.6939C85.6339 22.7838 83.4145 22.2984 80.3628 22.2984H75.4615V33.3717H79.3455C80.9793 33.3717 82.2123 32.947 82.9829 32.0672C83.5686 31.4301 84.1235 30.2469 84.6475 28.548H86.158V40.1978H84.4934C84.216 38.4988 83.8152 37.346 83.322 36.7089C82.613 35.8291 81.5033 35.374 79.9312 35.374H75.4615V43.6563C75.4615 45.1429 75.9547 46.1744 76.9719 46.6901C77.6809 47.0542 78.8523 47.2665 80.5169 47.2665C83.2912 47.2665 85.2332 47.1148 86.3429 46.8114C87.4527 46.4777 88.4699 45.8103 89.3947 44.7788C90.5661 43.2922 91.7374 41.8057 92.9088 40.3191L94.1727 40.8045C92.7547 44.5058 91.8299 47.3272 91.3675 49.2688H66.0905V47.5396C67.6317 47.2969 68.649 46.9328 69.173 46.4777C69.8204 45.9316 70.1595 44.9305 70.1595 43.535V25.1502C70.1595 23.2995 68.7723 22.2377 66.0288 21.995V20.2657Z" fill="#004191"/>
<path fill-rule="evenodd" clip-rule="evenodd" d="M64.4871 55.1544L78.6978 55.124C79.191 56.7319 79.6534 58.0365 80.1157 59.0073L79.3451 59.3107C78.7594 58.6432 78.2046 57.9758 77.6189 57.3084C77.1565 56.823 76.6324 56.4892 76.0776 56.3072C75.4611 56.1555 74.4438 56.0645 73.0567 56.0645V66.5614C73.0567 67.1379 73.3649 67.5323 73.9198 67.7446C74.1047 67.8053 74.6904 67.9266 75.6768 68.0783V68.9885C74.1356 68.9278 72.5635 68.8975 70.9913 68.8975C70.1899 68.8975 68.9877 68.9278 67.4156 68.9885V68.0783C68.4636 68.048 69.1418 67.9266 69.5117 67.7143C69.9741 67.4412 70.1899 66.8952 70.1899 66.076V56.0948H69.3268C68.2787 56.0948 67.4464 56.2162 66.8299 56.4892C66.3367 56.7016 65.8435 57.0657 65.3811 57.5814C64.8879 58.1578 64.4255 58.7342 63.9323 59.3107L63.1616 58.977C63.5315 58.1578 63.9631 56.8533 64.4871 55.1544ZM81.7187 68.0783L81.6879 68.1087C82.6435 68.0177 83.2908 67.866 83.6299 67.5626C83.969 67.2895 84.1231 66.7435 84.1231 65.985V58.9163C84.1231 57.7331 84.0614 57.0353 83.9381 56.8533C83.6915 56.3376 82.9517 56.0645 81.7803 56.0342V55.124C83.1983 55.1544 84.2464 55.1847 84.9246 55.1847C85.3561 55.1847 86.0035 55.1847 86.8666 55.1544C87.7605 55.1544 88.4079 55.124 88.8702 55.124C93.5557 55.124 95.8677 56.2162 95.8677 58.4005C95.8677 59.432 95.5594 60.2511 94.9737 60.8276C94.6038 61.1916 93.7715 61.7074 92.4769 62.4051L97.0699 67.1075C97.6864 67.7143 98.457 68.048 99.3818 68.1087L99.351 68.9581C98.9194 68.9581 98.2413 68.9581 97.3473 68.9581C96.8233 68.9581 96.0526 68.9581 95.0046 68.9581C93.5866 67.3199 91.6446 65.2569 89.2093 62.7389H86.9591V66.1974C86.9591 66.9558 87.144 67.4716 87.5447 67.7143C87.853 67.9266 88.4695 68.0783 89.3943 68.1087V68.9278L85.4178 68.8064C84.4313 68.8064 83.1983 68.8368 81.7187 68.9278V68.0783ZM88.0688 61.8287H89.0552C90.0724 61.8287 90.9664 61.5557 91.7062 60.9793C92.4152 60.4332 92.7851 59.7354 92.7851 58.8859C92.7851 57.005 91.5213 56.0342 88.9936 56.0342H87.4214C87.3598 56.0342 87.2981 56.0342 87.2057 56.0342C87.1132 56.0342 87.0515 56.0342 86.9899 56.0342V61.768C87.1132 61.768 87.2981 61.768 87.5447 61.768C87.7605 61.8287 87.9455 61.8287 88.0688 61.8287ZM99.6901 68.048C100.707 67.957 101.416 67.6839 101.848 67.2592C102.064 67.0468 102.403 66.4401 102.834 65.4389C103.574 63.8917 104.653 61.5557 106.071 58.4309C106.749 56.8533 107.119 55.8218 107.181 55.3061C107.89 55.1544 108.907 54.7903 110.171 54.2139C110.818 56.1859 111.866 58.9466 113.377 62.4962C113.716 63.376 114.24 64.6501 114.98 66.3794C115.226 66.9558 115.504 67.3502 115.874 67.5626C116.151 67.7143 116.706 67.8963 117.476 68.0177V68.9278C115.781 68.8671 114.949 68.8368 114.949 68.8368H112.483C112.174 68.8368 111.774 68.8368 111.281 68.8671C110.664 68.8975 110.232 68.9278 110.078 68.9278V68.0177C111.373 67.957 112.02 67.5929 112.02 66.8648C112.02 66.4704 111.866 65.894 111.527 65.1356C111.25 64.5591 111.003 63.9827 110.756 63.4063H105.023C104.745 63.9827 104.499 64.5591 104.252 65.1356C103.913 65.894 103.759 66.4704 103.759 66.8648C103.759 67.2895 104.036 67.5929 104.561 67.775C104.776 67.8356 105.27 67.9266 106.009 68.048V68.8671C104.406 68.8671 103.204 68.8671 102.403 68.8671C101.509 68.8671 100.646 68.8975 99.7825 68.9581V68.048H99.6901ZM110.417 62.4658C109.339 59.8568 108.506 57.9151 107.921 56.6106L105.424 62.4658H110.417ZM115.226 55.0634L115.257 55.033C116.706 55.0937 118.031 55.124 119.203 55.1544C119.788 55.1544 121.145 55.1544 123.21 55.0937V55.9735C121.885 56.0342 121.237 56.4589 121.237 57.187C121.237 57.6421 121.73 59.0376 122.779 61.3433C123.457 62.8299 124.135 64.3164 124.813 65.803C125.522 64.3164 126.262 62.8299 127.002 61.3433C128.081 59.0983 128.605 57.7028 128.605 57.1567C128.605 56.6713 128.389 56.3679 127.926 56.1859C127.402 56.1252 127.032 56.0645 126.786 56.0342V55.033C127.772 55.124 128.759 55.1544 129.776 55.1544C130.485 55.1544 131.533 55.1544 132.951 55.0937V56.0342C132.119 56.0645 131.502 56.2162 131.132 56.4286C130.824 56.6409 130.485 57.0657 130.115 57.7634L124.104 69.2312H123.364L117.754 57.3387C117.507 56.823 117.199 56.4589 116.798 56.3072C116.49 56.1859 115.997 56.0948 115.226 56.0342V55.0634ZM134.554 55.1544H147.778L149.782 58.7646L149.073 59.0376C147.439 57.6421 146.545 56.8836 146.36 56.7623C145.59 56.3375 144.326 56.0948 142.63 56.0948H139.887V61.3433H142.075C143 61.3433 143.678 61.1309 144.141 60.7366C144.449 60.4332 144.788 59.8567 145.065 59.068H145.898V64.5895H144.942C144.788 63.8007 144.572 63.2546 144.295 62.9209C143.925 62.4962 143.278 62.2838 142.384 62.2838H139.856V66.2277C139.856 66.9255 140.133 67.4109 140.688 67.6536C141.089 67.8356 141.736 67.9266 142.692 67.9266C144.233 67.9266 145.343 67.866 145.959 67.7143C146.607 67.5626 147.162 67.2289 147.686 66.7435C148.364 66.0457 149.011 65.3479 149.659 64.6198L150.367 64.8322C149.566 66.5918 149.042 67.9266 148.795 68.8368H134.585V68.0177C135.448 67.8963 136.034 67.7446 136.311 67.5323C136.681 67.2592 136.866 66.8041 136.866 66.1367V57.3994C136.866 56.5196 136.095 56.0342 134.554 55.9128V55.1544ZM152.155 68.0783C153.728 67.9266 154.529 67.4412 154.529 66.6221V57.6421C154.529 56.5803 153.728 56.0342 152.155 56.0342V55.124C153.758 55.1544 154.961 55.1847 155.762 55.1847C156.718 55.1847 158.166 55.1544 160.108 55.124V56.0342C159.122 56.0645 158.475 56.1555 158.136 56.3072C157.673 56.5499 157.457 57.0657 157.457 57.8241V66.3187C157.457 66.7131 157.581 67.0772 157.889 67.3806C158.166 67.7143 158.536 67.866 158.999 67.866H162.544C164.27 67.866 165.75 66.6221 167.075 64.1647L168.031 64.4378C167.322 66.1064 166.767 67.5929 166.428 68.8975H152.186V68.0783H152.155Z" fill="#004191"/>
<path fill-rule="evenodd" clip-rule="evenodd" d="M58.9387 18.7489L59.2778 37.0123L57.1816 37.255C55.7945 32.0975 53.0818 27.7289 49.0128 24.1793C44.7589 20.4478 39.9809 18.5972 34.7406 18.5972C27.3732 18.5972 21.4239 21.4489 16.9541 27.1828C12.8543 32.4009 10.8198 38.7416 10.8198 46.2654C10.8198 54.4566 12.5461 61.2523 16.0294 66.5918C20.16 72.9628 26.1402 76.1482 34.0316 76.0876C35.9427 76.0876 37.8848 75.8145 39.796 75.2381C43.5567 74.1459 46.0228 72.6897 47.2558 70.8998C48.4272 69.2615 48.982 66.5008 48.982 62.6175C48.982 58.5522 48.3963 56.0949 47.1941 55.2454C46.7009 54.8813 44.204 54.3049 39.7035 53.4858L39.5802 50.8161C44.9747 50.9677 53.051 51.0588 63.8092 51.0588L63.7167 53.7285H62.9152C59.3394 53.7285 57.5516 56.1859 57.5516 61.0703V71.7189C49.6602 76.5426 41.1831 78.9697 32.1512 78.9697C23.1809 78.9697 15.567 75.7842 9.37101 69.4436C3.11339 63.1029 0 55.4881 0 46.5991C0 38.0741 3.26752 30.7323 9.83339 24.6041C16.276 18.5972 23.8899 15.5937 32.6136 15.5937C40.1042 15.5937 47.749 17.778 55.4862 22.177L58.9387 18.7489Z" fill="#004191"/>
<path fill-rule="evenodd" clip-rule="evenodd" d="M113.901 1.94163C108.106 4.61137 107.058 12.0442 107.027 16.0488L117.908 11.4677L113.932 1.88095C126.447 -3.39785 141.151 2.8821 146.515 15.8061C151.909 28.6997 146.022 43.6563 133.506 48.9351L129.776 39.9551L119.08 44.4451C123.18 48.1463 127.988 50.5733 132.705 49.2385C127.064 50.8767 122.193 48.7531 117.6 45.2035L110.726 46.9631L116.09 43.8383C112.452 40.3191 110.849 37.8314 108.229 32.5829L101.108 34.6459L107.705 31.2177C106.164 27.3041 105.239 22.2074 105.27 18.5668C103.235 18.9309 100.307 20.2657 98.2417 20.6298C100.245 19.3253 103.328 18.0511 105.332 16.7162C105.856 9.92051 108.784 4.12596 113.901 1.94163ZM118.648 13.2273L107.027 18.1117C107.181 22.5714 108.507 27.0008 109.801 30.4593L123.457 24.7558L118.648 13.2273ZM124.012 26.212L110.418 31.9155C112.761 37.2247 115.227 40.4405 117.724 43.1102L129.067 38.3472L124.012 26.212ZM114.209 1.78994C120.097 -0.242704 125.892 4.09562 128.728 6.88671L117.908 11.4374L117.816 11.5284L118.525 13.2577L130.146 8.34293C133.198 11.5891 135.387 15.6544 136.928 19.0219L123.395 24.7558L123.426 24.8164H123.303L123.889 26.212L137.483 20.4478C139.61 25.9086 140.226 29.9435 140.35 33.6448L128.913 38.4685L129.622 40.0461L129.776 39.9854V40.0157L140.35 35.5561C140.072 40.9866 138.469 46.053 134.308 48.6014L134.339 48.571C139.302 45.6586 141.182 40.6528 141.922 34.9796L147.563 32.5829C147.779 31.8548 147.933 31.1267 148.056 30.3986L142.045 32.947C142.045 27.8502 141.428 25.1502 139.579 19.568L146.761 16.5342C146.669 16.2915 146.576 16.0488 146.484 15.8061C146.361 15.533 146.237 15.26 146.114 14.9869L138.962 18.0207C137.236 14.1071 134.339 9.95084 131.749 7.40246L137.822 4.82373C137.298 4.42934 136.743 4.06528 136.188 3.73157L130.393 6.1586C125.337 1.82028 119.45 -0.121352 114.425 1.66859C114.364 1.72926 114.271 1.7596 114.209 1.78994ZM123.673 0C137.976 0 149.566 11.4071 149.566 25.4839C149.566 39.5607 137.976 50.9677 123.673 50.9677C109.37 50.9677 97.7793 39.5607 97.7793 25.4839C97.7793 11.4071 109.401 0 123.673 0Z" fill="#004191"/>
</svg>
