<?xml version="1.0" standalone="no"?>
<svg xmlns:xlink="http://www.w3.org/1999/xlink" id="wave" style="transform:rotate(0deg); transition: 0.3s" viewBox="0 0 1440 170" version="1.1" xmlns="http://www.w3.org/2000/svg"><defs><linearGradient id="sw-gradient-0" x1="0" x2="0" y1="1" y2="0"><stop stop-color="rgba(80.861, 116.542, 152.915, 1)" offset="0%"/><stop stop-color="rgba(11, 189.694, 255, 1)" offset="100%"/></linearGradient></defs><path style="transform:translate(0, 0px); opacity:1" fill="url(#sw-gradient-0)" d="M0,34L60,34C120,34,240,34,360,39.7C480,45,600,57,720,51C840,45,960,23,1080,17C1200,11,1320,23,1440,45.3C1560,68,1680,102,1800,110.5C1920,119,2040,102,2160,102C2280,102,2400,119,2520,127.5C2640,136,2760,136,2880,127.5C3000,119,3120,102,3240,85C3360,68,3480,51,3600,53.8C3720,57,3840,79,3960,76.5C4080,74,4200,45,4320,34C4440,23,4560,28,4680,51C4800,74,4920,113,5040,121.8C5160,130,5280,108,5400,90.7C5520,74,5640,62,5760,56.7C5880,51,6000,51,6120,51C6240,51,6360,51,6480,65.2C6600,79,6720,108,6840,99.2C6960,91,7080,45,7200,28.3C7320,11,7440,23,7560,28.3C7680,34,7800,34,7920,42.5C8040,51,8160,68,8280,87.8C8400,108,8520,130,8580,141.7L8640,153L8640,170L8580,170C8520,170,8400,170,8280,170C8160,170,8040,170,7920,170C7800,170,7680,170,7560,170C7440,170,7320,170,7200,170C7080,170,6960,170,6840,170C6720,170,6600,170,6480,170C6360,170,6240,170,6120,170C6000,170,5880,170,5760,170C5640,170,5520,170,5400,170C5280,170,5160,170,5040,170C4920,170,4800,170,4680,170C4560,170,4440,170,4320,170C4200,170,4080,170,3960,170C3840,170,3720,170,3600,170C3480,170,3360,170,3240,170C3120,170,3000,170,2880,170C2760,170,2640,170,2520,170C2400,170,2280,170,2160,170C2040,170,1920,170,1800,170C1680,170,1560,170,1440,170C1320,170,1200,170,1080,170C960,170,840,170,720,170C600,170,480,170,360,170C240,170,120,170,60,170L0,170Z"/></svg>